<svg xmlns="http://www.w3.org/2000/svg" viewBox="0 0 24 24" id="caltex">
  <path fill="#EF3E42" fill-rule="evenodd" d="M14.694 8.29H9.306l-1.665 5.126L23.415 8.29l-7.056 5.126 2.694 8.293L12 16.584l-7.053 5.125A11.948 11.948 0 0 0 12 24c6.627 0 12-5.373 12-12S18.628 0 12.001 0l2.693 8.29z" clip-rule="evenodd"></path>
  <path fill="#00546D" fill-rule="evenodd" d="M12 0C5.373 0 0 5.373 0 12c0 3.99 1.948 7.527 4.945 9.708l2.695-8.295L.597 8.289l8.717-.003L12 0z" clip-rule="evenodd"></path>
  <path fill="#D03639" d="m12 16.584-7.053 5.125A11.948 11.948 0 0 0 12 24v-7.416zm0-8.294H9.306l-1.665 5.126L12 11.999V8.29z"></path>
  <path fill="#00495F" d="M12 0C5.373 0 0 5.373 0 12c0 3.99 1.948 7.527 4.945 9.708l2.695-8.295L.597 8.289l8.717-.003L12 0z"></path>
</svg>
