<svg id="logosandtypes_com" xmlns="http://www.w3.org/2000/svg" viewBox="0 0 150 150"><path fill="none" d="M.02-.02l150 .03-.03 150-150-.03.03-150z"/><path fill="#00246B" d="M17.92 18.14h115.42v112.88H17.92V18.14z"/><path fill="#E3001F" d="M46.2 71.44c7.42-6.03 10.33-14.02 9.55-20.59-2.58-21.65-29.01-30.14-37.82-32.39v93.58c1.45-7.25 4.29-13.27 5.49-15.64 4.34-8.53 20.72-23.25 22.78-24.96z"/><path fill="#E3001F" d="M106.76 28.24c-2.39-1.36-11.22-7.27-27.99-10.11H34.54c7.94 1.8 37.59 9.48 43.87 25.29 1.2 3.03 5.58 15.47-10.53 28.96-2.25 1.87-11.45 7.9-14.26 9.61-2.78 1.69-19.19 12.52-27.55 26.93-1.98 3.39-6.13 14.38-7.76 22.09h14.5c1.1-3.81 4.39-11.35 14.02-18.67 2.31-1.77 19.82-12.54 26.48-15.82 6.66-3.23 24.61-12.23 31.13-16.86 6.51-4.64 18.13-12.71 18.27-27.11.02-1.85.31-15.02-15.95-24.31z"/></svg>