<svg width="140" height="20" viewBox="0 0 140 20" fill="none" xmlns="http://www.w3.org/2000/svg">
<path d="M28.1442 18.959H27.5517C25.9457 18.959 24.3865 18.3501 23.1859 17.2416C22.11 16.2424 20.1921 14.7124 17.1204 13.0106L16.372 12.6047L17.1828 12.3549C17.3543 12.308 21.3304 11.1215 23.8407 11.9021L23.9655 11.9333L24.0279 12.0426C24.0434 12.0738 25.9925 14.8529 27.848 18.4282L28.1442 18.959Z" fill="black"/>
<path d="M0 19.3962L0.795212 17.7724C4.16317 10.9185 10.8679 2.48768 12.2244 1.09816C13.5498 -0.275751 14.2358 -0.338202 15.3741 0.785907C17.8377 3.17464 22.0008 8.70151 22.188 8.9357L22.6401 9.52898L21.8917 9.51337C11.5072 9.26356 1.45009 18.1315 1.34095 18.2096L0 19.3962Z" fill="black"/>
<path d="M129.666 5.61021C128.559 4.43926 126.766 3.56495 124.084 3.56495C121.044 3.56495 119.594 4.47049 119.594 5.64143C119.594 6.99973 121.823 7.37443 124.427 7.59301C128.965 7.99894 133.174 8.84202 133.174 12.5578C133.174 16.0238 128.887 17.5226 124.053 17.5226C119.625 17.5226 116.428 16.2736 114.588 13.6975L117.489 12.1363C118.97 14.1659 121.465 14.8997 124.115 14.8997C126.688 14.8997 129.105 14.2596 129.105 12.5578C129.105 11.0902 126.969 10.4813 124.084 10.2628C119.656 9.88807 115.555 9.04499 115.555 5.54776C115.555 2.34717 119.968 1.03571 123.959 1.00448C126.376 1.00448 128.855 1.36357 130.68 2.44085C131.413 2.878 132.021 3.42444 132.504 4.09578L129.666 5.61021Z" fill="black"/>
<path d="M46.0911 12.995L46.0443 12.9638L45.9663 13.0262C44.6254 13.9786 42.5672 14.5719 40.587 14.5719C35.2232 14.5719 33.2741 11.9177 33.2429 9.4353C33.2274 8.24874 33.7107 7.09341 34.5995 6.20349C35.5194 5.28234 37.297 4.17385 40.587 4.17385C42.5048 4.17385 44.5474 4.76713 45.9196 5.73511L46.0131 5.79756L46.0755 5.75072C46.3873 4.70468 46.8395 3.70547 47.4164 2.7531C45.4206 1.67583 43.0973 1.09816 40.587 1.09816C35.3947 1.09816 32.5569 2.86239 31.0912 4.32997C29.6879 5.75072 28.9083 7.56179 28.9239 9.45091C28.9395 11.6523 29.9374 13.6507 31.7149 15.0871C33.7731 16.742 36.8292 17.6163 40.5714 17.6163C43.1909 17.6163 45.5453 17.1011 47.4944 16.1019C46.8863 15.1183 46.4185 14.0723 46.0911 12.995Z" fill="black"/>
<path d="M61.855 17.6007C58.1128 17.6007 55.0567 16.7264 52.9985 15.0715C51.221 13.6351 50.223 11.6367 50.2075 9.4353C50.1919 7.56179 50.9559 5.73511 52.3748 4.31436C53.8405 2.84677 56.6627 1.08255 61.8705 1.08255C64.9111 1.08255 67.7021 1.91002 69.9162 3.48689L70.0877 3.59618L67.1096 5.65705L67.0316 5.59459C65.7063 4.65784 63.8664 4.15823 61.8705 4.15823C58.5806 4.15823 56.803 5.26673 55.8831 6.18788C54.9943 7.0778 54.5109 8.23313 54.5265 9.41969C54.5577 11.9021 56.4912 14.5562 61.8705 14.5562C63.8508 14.5562 65.909 13.963 67.2499 13.0106L67.3279 12.9481L70.3684 15.1495L70.2125 15.2588C68.0139 16.8045 65.1449 17.6007 61.855 17.6007Z" fill="black"/>
<path d="M108.367 5.61021C107.26 4.43926 105.467 3.56495 102.785 3.56495C99.7444 3.56495 98.2943 4.47049 98.2943 5.64143C98.2943 6.99973 100.524 7.37443 103.128 7.59301C107.665 7.99894 111.875 8.84202 111.875 12.5578C111.875 16.0238 107.587 17.5226 102.754 17.5226C98.3255 17.5226 95.1291 16.2736 93.2892 13.6975L96.1894 12.1363C97.6706 14.1659 100.165 14.8997 102.801 14.8997C105.373 14.8997 107.79 14.2596 107.79 12.5578C107.79 11.0902 105.654 10.4813 102.769 10.2628C98.3411 9.88807 94.2403 9.04499 94.2403 5.54776C94.2403 2.34717 98.6374 1.03571 102.645 1.00448C105.061 1.00448 107.541 1.36357 109.365 2.44085C110.098 2.878 110.706 3.42444 111.174 4.09578L108.367 5.61021Z" fill="black"/>
<path d="M78.6012 4.39242H87.9566C89.5314 4.39242 90.7944 3.11219 90.7944 1.55093H74.5316V17.1167H90.7944C90.7944 15.5242 89.5002 14.2284 87.9098 14.2284H78.6012V4.39242Z" fill="black"/>
<path d="M78.6012 10.4033H83.6375C85.15 10.4033 86.6468 9.60704 86.6468 8.09262H81.1583L78.6012 10.4033Z" fill="black"/>
<path d="M136.567 2.96838V1.22913H137.216V0.895023H135.541V1.22913H136.193V2.96838H136.567Z" fill="black"/>
<path d="M140 2.96838V0.895023H139.426L138.762 2.47814H138.756L138.091 0.895023H137.53V2.96838H137.892V1.32905H137.898L138.581 2.96838H138.921L139.62 1.29783H139.626V2.96838H140Z" fill="black"/>
</svg>
